G04*
G04 #@! TF.GenerationSoftware,Altium Limited,Altium Designer,22.1.2 (22)*
G04*
G04 Layer_Color=16711935*
%FSLAX25Y25*%
%MOIN*%
G70*
G04*
G04 #@! TF.SameCoordinates,791A5B21-3FBE-428E-ACD5-E62C4538A61E*
G04*
G04*
G04 #@! TF.FilePolarity,Positive*
G04*
G01*
G75*
%ADD31C,0.00394*%
D31*
X128020Y113937D02*
X127756Y114921D01*
X127035Y115642D01*
X126051Y115905D01*
X125067Y115642D01*
X124346Y114921D01*
X124083Y113937D01*
X124346Y112953D01*
X125067Y112232D01*
X126051Y111969D01*
X127035Y112232D01*
X127756Y112953D01*
X128020Y113937D01*
X42252Y18567D02*
X41988Y19551D01*
X41268Y20272D01*
X40284Y20535D01*
X39299Y20272D01*
X38579Y19551D01*
X38315Y18567D01*
X38579Y17583D01*
X39299Y16862D01*
X40284Y16598D01*
X41268Y16862D01*
X41988Y17583D01*
X42252Y18567D01*
X122508Y77520D02*
Y117480D01*
X148492Y77520D02*
Y117480D01*
X122508D02*
X148492D01*
X122508Y77520D02*
X148492D01*
X248780Y51437D02*
Y93563D01*
X267283Y51437D02*
Y93563D01*
X248780Y51437D02*
X267283D01*
X248780Y93563D02*
X267283D01*
X253898Y51437D02*
Y93563D01*
X36740Y15024D02*
X179260D01*
X36740Y42976D02*
X179260D01*
X36740Y15024D02*
Y42976D01*
X179260Y15024D02*
Y42976D01*
M02*
