G04*
G04 #@! TF.GenerationSoftware,Altium Limited,Altium Designer,22.1.2 (22)*
G04*
G04 Layer_Color=65535*
%FSLAX25Y25*%
%MOIN*%
G70*
G04*
G04 #@! TF.SameCoordinates,0EE1BFB4-235D-47A2-9C71-C2F2C54C5933*
G04*
G04*
G04 #@! TF.FilePolarity,Positive*
G04*
G01*
G75*
%ADD10C,0.00787*%
%ADD11C,0.00984*%
%ADD12C,0.02362*%
%ADD13C,0.00800*%
%ADD14C,0.01000*%
D10*
X133000Y117579D02*
X133190Y116622D01*
X133732Y115811D01*
X134543Y115269D01*
X135500Y115079D01*
X136457Y115269D01*
X137268Y115811D01*
X137810Y116622D01*
X138000Y117579D01*
X36740Y26500D02*
X37697Y26690D01*
X38508Y27232D01*
X39050Y28043D01*
X39240Y29000D01*
X39050Y29957D01*
X38508Y30768D01*
X37697Y31310D01*
X36740Y31500D01*
X125067Y77421D02*
Y117579D01*
X145933Y77421D02*
Y117579D01*
X125067D02*
X133000D01*
X138000D02*
X145933D01*
X125067Y77421D02*
X145933D01*
X171500Y147500D02*
Y167500D01*
Y147500D02*
X191500D01*
X171500Y167500D02*
X191500D01*
Y147500D02*
Y167500D01*
X119500Y131000D02*
Y134000D01*
Y131000D02*
X139500D01*
Y137000D01*
X119500D02*
X139500D01*
X119500Y134000D02*
Y137000D01*
X139500Y134000D02*
X140400D01*
X118600D02*
X119500D01*
X119000Y152000D02*
Y155000D01*
Y152000D02*
X139000D01*
Y158000D01*
X119000D02*
X139000D01*
X119000Y155000D02*
Y158000D01*
X139000Y155000D02*
X139900D01*
X118100D02*
X119000D01*
X209500Y185000D02*
X224500D01*
Y140000D02*
Y185000D01*
X209500Y140000D02*
X224500D01*
X209500D02*
Y185000D01*
X250748Y51437D02*
Y93563D01*
X248780Y51437D02*
Y93563D01*
X267283Y51437D02*
Y93563D01*
X248780Y51437D02*
X267283D01*
X248780Y93563D02*
X267283D01*
X65000Y133000D02*
X68000D01*
X65000Y113000D02*
Y133000D01*
Y113000D02*
X71000D01*
Y133000D01*
X68000D02*
X71000D01*
X68000Y112100D02*
Y113000D01*
Y133000D02*
Y133900D01*
X165000Y75000D02*
Y90000D01*
X210000D01*
Y75000D02*
Y90000D01*
X165000Y75000D02*
X210000D01*
X76500Y107000D02*
X91500D01*
Y62000D02*
Y107000D01*
X76500Y62000D02*
X91500D01*
X76500D02*
Y107000D01*
X65500Y176000D02*
X68500D01*
X65500Y156000D02*
Y176000D01*
Y156000D02*
X71500D01*
Y176000D01*
X68500D02*
X71500D01*
X68500Y155100D02*
Y156000D01*
Y176000D02*
Y176900D01*
X23500Y19000D02*
X26500D01*
Y39000D01*
X20500D02*
X26500D01*
X20500Y19000D02*
Y39000D01*
Y19000D02*
X23500D01*
Y39000D02*
Y39900D01*
Y18100D02*
Y19000D01*
X264000Y132500D02*
X274000D01*
X264000D02*
Y182500D01*
X274000Y132500D02*
Y182500D01*
X264000D02*
X274000D01*
X36740Y18567D02*
X179260D01*
X36740Y39433D02*
X179260D01*
X36740Y18567D02*
Y26500D01*
Y31500D02*
Y39433D01*
X179260Y18567D02*
Y39433D01*
X18000Y154500D02*
X28000D01*
X18000D02*
Y174500D01*
X28000D01*
Y154500D02*
Y174500D01*
X30000Y139500D02*
X45000D01*
Y94500D02*
Y139500D01*
X30000Y94500D02*
X45000D01*
X30000D02*
Y139500D01*
D11*
X120992Y117618D02*
X120254Y118044D01*
Y117192D01*
X120992Y117618D01*
X270335Y62500D02*
X269597Y62926D01*
Y62074D01*
X270335Y62500D01*
X38374Y14000D02*
X37636Y14426D01*
Y13574D01*
X38374Y14000D01*
D12*
X130185Y113642D02*
X129740Y114565D01*
X128741Y114793D01*
X127940Y114154D01*
Y113129D01*
X128741Y112490D01*
X129740Y112718D01*
X130185Y113642D01*
X41858Y22504D02*
X41414Y23427D01*
X40414Y23655D01*
X39613Y23016D01*
Y21992D01*
X40414Y21352D01*
X41414Y21580D01*
X41858Y22504D01*
D13*
X188500Y144500D02*
Y146166D01*
Y145333D01*
X183502D01*
X184335Y144500D01*
X178500Y145832D02*
Y142500D01*
X175168Y145832D01*
X174335D01*
X173502Y144999D01*
Y143333D01*
X174335Y142500D01*
X178500Y170999D02*
X173502D01*
X176001Y168500D01*
Y171832D01*
X184335Y168500D02*
X183502Y169333D01*
Y170999D01*
X184335Y171832D01*
X185168D01*
X186001Y170999D01*
Y170166D01*
Y170999D01*
X186834Y171832D01*
X187667D01*
X188500Y170999D01*
Y169333D01*
X187667Y168500D01*
D14*
X117300Y127698D02*
Y122700D01*
X118300Y121700D01*
X120299D01*
X121299Y122700D01*
Y127698D01*
X123298Y121700D02*
X125297D01*
X124298D01*
Y127698D01*
X123298Y126698D01*
X37300Y56398D02*
Y51400D01*
X38300Y50400D01*
X40299D01*
X41299Y51400D01*
Y56398D01*
X43298Y55398D02*
X44298Y56398D01*
X46297D01*
X47297Y55398D01*
Y54399D01*
X46297Y53399D01*
X45297D01*
X46297D01*
X47297Y52399D01*
Y51400D01*
X46297Y50400D01*
X44298D01*
X43298Y51400D01*
X249300Y103098D02*
Y98100D01*
X250300Y97100D01*
X252299D01*
X253299Y98100D01*
Y103098D01*
X259297Y97100D02*
X255298D01*
X259297Y101099D01*
Y102098D01*
X258297Y103098D01*
X256298D01*
X255298Y102098D01*
X21100Y50200D02*
Y56198D01*
X24099D01*
X25099Y55198D01*
Y53199D01*
X24099Y52199D01*
X21100D01*
X23099D02*
X25099Y50200D01*
X31097Y56198D02*
X27098D01*
Y53199D01*
X29097Y54199D01*
X30097D01*
X31097Y53199D01*
Y51200D01*
X30097Y50200D01*
X28098D01*
X27098Y51200D01*
X66100Y187200D02*
Y193198D01*
X69099D01*
X70099Y192198D01*
Y190199D01*
X69099Y189199D01*
X66100D01*
X68099D02*
X70099Y187200D01*
X75097D02*
Y193198D01*
X72098Y190199D01*
X76097D01*
X65600Y144200D02*
Y150198D01*
X68599D01*
X69599Y149198D01*
Y147199D01*
X68599Y146199D01*
X65600D01*
X67599D02*
X69599Y144200D01*
X71598Y149198D02*
X72598Y150198D01*
X74597D01*
X75597Y149198D01*
Y148199D01*
X74597Y147199D01*
X73597D01*
X74597D01*
X75597Y146199D01*
Y145200D01*
X74597Y144200D01*
X72598D01*
X71598Y145200D01*
X112300Y140400D02*
Y146398D01*
X115299D01*
X116299Y145398D01*
Y143399D01*
X115299Y142399D01*
X112300D01*
X114299D02*
X116299Y140400D01*
X122297D02*
X118298D01*
X122297Y144399D01*
Y145398D01*
X121297Y146398D01*
X119298D01*
X118298Y145398D01*
X111800Y161400D02*
Y167398D01*
X114799D01*
X115799Y166398D01*
Y164399D01*
X114799Y163399D01*
X111800D01*
X113799D02*
X115799Y161400D01*
X117798D02*
X119797D01*
X118798D01*
Y167398D01*
X117798Y166398D01*
X172100Y175600D02*
Y181598D01*
X175099D01*
X176099Y180598D01*
Y178599D01*
X175099Y177599D01*
X172100D01*
X178098Y180598D02*
X179098Y181598D01*
X181097D01*
X182097Y180598D01*
Y179599D01*
X181097Y178599D01*
X180097D01*
X181097D01*
X182097Y177599D01*
Y176600D01*
X181097Y175600D01*
X179098D01*
X178098Y176600D01*
X18600Y177900D02*
Y183898D01*
X21599D01*
X22599Y182898D01*
Y180899D01*
X21599Y179899D01*
X18600D01*
X28597Y177900D02*
X24598D01*
X28597Y181899D01*
Y182898D01*
X27597Y183898D01*
X25598D01*
X24598Y182898D01*
X264600Y185900D02*
Y191898D01*
X267599D01*
X268599Y190898D01*
Y188899D01*
X267599Y187899D01*
X264600D01*
X270598Y185900D02*
X272597D01*
X271598D01*
Y191898D01*
X270598Y190898D01*
X34599Y147898D02*
X33599Y148898D01*
X31600D01*
X30600Y147898D01*
Y143900D01*
X31600Y142900D01*
X33599D01*
X34599Y143900D01*
X39597Y142900D02*
Y148898D01*
X36598Y145899D01*
X40597D01*
X81099Y115398D02*
X80099Y116398D01*
X78100D01*
X77100Y115398D01*
Y111400D01*
X78100Y110400D01*
X80099D01*
X81099Y111400D01*
X83098Y115398D02*
X84098Y116398D01*
X86097D01*
X87097Y115398D01*
Y114399D01*
X86097Y113399D01*
X85097D01*
X86097D01*
X87097Y112399D01*
Y111400D01*
X86097Y110400D01*
X84098D01*
X83098Y111400D01*
X169599Y98398D02*
X168599Y99398D01*
X166600D01*
X165600Y98398D01*
Y94400D01*
X166600Y93400D01*
X168599D01*
X169599Y94400D01*
X175597Y93400D02*
X171598D01*
X175597Y97399D01*
Y98398D01*
X174597Y99398D01*
X172598D01*
X171598Y98398D01*
X214099Y193398D02*
X213099Y194398D01*
X211100D01*
X210100Y193398D01*
Y189400D01*
X211100Y188400D01*
X213099D01*
X214099Y189400D01*
X216098Y188400D02*
X218097D01*
X217098D01*
Y194398D01*
X216098Y193398D01*
M02*
