G04*
G04 #@! TF.GenerationSoftware,Altium Limited,Altium Designer,22.1.2 (22)*
G04*
G04 Layer_Color=8388736*
%FSLAX25Y25*%
%MOIN*%
G70*
G04*
G04 #@! TF.SameCoordinates,0EE1BFB4-235D-47A2-9C71-C2F2C54C5933*
G04*
G04*
G04 #@! TF.FilePolarity,Negative*
G04*
G01*
G75*
%ADD15R,0.06706X0.06706*%
%ADD16C,0.06706*%
%ADD17R,0.06706X0.06706*%
%ADD18C,0.06312*%
%ADD19C,0.05524*%
%ADD20R,0.07099X0.07099*%
%ADD21C,0.07099*%
D15*
X120500Y112500D02*
D03*
D16*
Y102500D02*
D03*
Y92500D02*
D03*
Y82500D02*
D03*
X150500Y112500D02*
D03*
Y102500D02*
D03*
Y92500D02*
D03*
Y82500D02*
D03*
X176500Y162500D02*
D03*
X186500D02*
D03*
X176500Y152500D02*
D03*
X269000Y177500D02*
D03*
Y167500D02*
D03*
Y157500D02*
D03*
Y147500D02*
D03*
X53000Y14000D02*
D03*
X63000D02*
D03*
X73000D02*
D03*
X83000D02*
D03*
X93000D02*
D03*
X103000D02*
D03*
X113000D02*
D03*
X123000D02*
D03*
X133000D02*
D03*
X143000D02*
D03*
X153000D02*
D03*
X163000D02*
D03*
X173000D02*
D03*
X43000Y44000D02*
D03*
X53000D02*
D03*
X63000D02*
D03*
X73000D02*
D03*
X83000D02*
D03*
X93000D02*
D03*
X103000D02*
D03*
X113000D02*
D03*
X123000D02*
D03*
X133000D02*
D03*
X143000D02*
D03*
X153000D02*
D03*
X163000D02*
D03*
X173000D02*
D03*
X23000Y159500D02*
D03*
D17*
X186500Y152500D02*
D03*
X269000Y137500D02*
D03*
X43000Y14000D02*
D03*
X23000Y169500D02*
D03*
D18*
X114500Y134000D02*
D03*
X144500D02*
D03*
X114000Y155000D02*
D03*
X144000D02*
D03*
X68000Y138000D02*
D03*
Y108000D02*
D03*
X68500Y181000D02*
D03*
Y151000D02*
D03*
X23500Y14000D02*
D03*
Y44000D02*
D03*
D19*
X217000Y177500D02*
D03*
Y147500D02*
D03*
X172500Y82500D02*
D03*
X202500D02*
D03*
X84000Y99500D02*
D03*
Y69500D02*
D03*
X37500Y132000D02*
D03*
Y102000D02*
D03*
D20*
X260000Y62500D02*
D03*
D21*
Y72500D02*
D03*
Y82500D02*
D03*
M02*
