G04*
G04 #@! TF.GenerationSoftware,Altium Limited,Altium Designer,22.1.2 (22)*
G04*
G04 Layer_Physical_Order=1*
G04 Layer_Color=255*
%FSLAX25Y25*%
%MOIN*%
G70*
G04*
G04 #@! TF.SameCoordinates,791A5B21-3FBE-428E-ACD5-E62C4538A61E*
G04*
G04*
G04 #@! TF.FilePolarity,Positive*
G04*
G01*
G75*
%ADD14C,0.01000*%
%ADD22R,0.05906X0.05906*%
%ADD23C,0.05906*%
%ADD24R,0.05906X0.05906*%
%ADD25C,0.05512*%
%ADD26C,0.04724*%
%ADD27R,0.06299X0.06299*%
%ADD28C,0.06299*%
G36*
X299000Y1500D02*
X298500Y1000D01*
X298000Y1500D01*
X-1000D01*
Y92000D01*
X-1500Y92500D01*
X-1000Y200500D01*
X299000D01*
Y1500D01*
D02*
G37*
%LPC*%
G36*
X68994Y184756D02*
X68006D01*
X67050Y184500D01*
X66194Y184005D01*
X65495Y183306D01*
X65000Y182450D01*
X64744Y181494D01*
Y180506D01*
X65000Y179550D01*
X65495Y178694D01*
X66194Y177995D01*
X67050Y177500D01*
X68006Y177244D01*
X68994D01*
X69950Y177500D01*
X70806Y177995D01*
X71505Y178694D01*
X72000Y179550D01*
X72256Y180506D01*
Y181494D01*
X72000Y182450D01*
X71505Y183306D01*
X70806Y184005D01*
X69950Y184500D01*
X68994Y184756D01*
D02*
G37*
G36*
X217443Y180862D02*
X216557D01*
X215702Y180633D01*
X214936Y180190D01*
X214310Y179564D01*
X213867Y178798D01*
X213638Y177943D01*
Y177057D01*
X213867Y176202D01*
X214310Y175436D01*
X214936Y174810D01*
X215702Y174367D01*
X216557Y174138D01*
X217443D01*
X218298Y174367D01*
X219064Y174810D01*
X219690Y175436D01*
X220133Y176202D01*
X220362Y177057D01*
Y177943D01*
X220133Y178798D01*
X219690Y179564D01*
X219064Y180190D01*
X218298Y180633D01*
X217443Y180862D01*
D02*
G37*
G36*
X269520Y181453D02*
X268480D01*
X267474Y181183D01*
X266573Y180663D01*
X265837Y179927D01*
X265317Y179026D01*
X265047Y178020D01*
Y176980D01*
X265317Y175974D01*
X265837Y175073D01*
X266573Y174337D01*
X267474Y173817D01*
X268480Y173547D01*
X269520D01*
X270522Y173816D01*
X271971Y172366D01*
Y170773D01*
X271509Y170581D01*
X271427Y170663D01*
X270526Y171183D01*
X269520Y171453D01*
X268480D01*
X267474Y171183D01*
X266573Y170663D01*
X265837Y169927D01*
X265317Y169026D01*
X265047Y168020D01*
Y166980D01*
X265317Y165974D01*
X265837Y165073D01*
X266573Y164337D01*
X267474Y163817D01*
X268480Y163547D01*
X269520D01*
X270526Y163817D01*
X271427Y164337D01*
X271509Y164419D01*
X271971Y164227D01*
Y160773D01*
X271509Y160581D01*
X271427Y160663D01*
X270526Y161183D01*
X269520Y161453D01*
X269500D01*
Y157500D01*
Y153547D01*
X269520D01*
X270526Y153817D01*
X271427Y154337D01*
X271509Y154419D01*
X271971Y154227D01*
Y150773D01*
X271509Y150581D01*
X271427Y150663D01*
X270526Y151183D01*
X269520Y151453D01*
X268480D01*
X267474Y151183D01*
X266573Y150663D01*
X265837Y149927D01*
X265317Y149026D01*
X265047Y148020D01*
Y146980D01*
X265317Y145974D01*
X265837Y145073D01*
X266573Y144337D01*
X267474Y143817D01*
X268480Y143547D01*
X269520D01*
X270526Y143817D01*
X271427Y144337D01*
X271509Y144419D01*
X271971Y144227D01*
Y141453D01*
X265047D01*
Y133547D01*
X271971D01*
Y112634D01*
X183519Y24181D01*
X183187Y23685D01*
X183071Y23100D01*
Y14133D01*
X179966Y11029D01*
X176273D01*
X176081Y11491D01*
X176163Y11573D01*
X176683Y12474D01*
X176953Y13480D01*
Y14520D01*
X176683Y15526D01*
X176163Y16427D01*
X175427Y17163D01*
X174526Y17683D01*
X173520Y17953D01*
X172480D01*
X171474Y17683D01*
X170573Y17163D01*
X169837Y16427D01*
X169317Y15526D01*
X169047Y14520D01*
Y13480D01*
X169317Y12474D01*
X169837Y11573D01*
X169919Y11491D01*
X169727Y11029D01*
X166273D01*
X166081Y11491D01*
X166163Y11573D01*
X166683Y12474D01*
X166953Y13480D01*
Y14520D01*
X166683Y15526D01*
X166163Y16427D01*
X165427Y17163D01*
X164526Y17683D01*
X163520Y17953D01*
X162480D01*
X161474Y17683D01*
X160573Y17163D01*
X159837Y16427D01*
X159317Y15526D01*
X159047Y14520D01*
Y13480D01*
X159317Y12474D01*
X159837Y11573D01*
X159919Y11491D01*
X159727Y11029D01*
X156273D01*
X156081Y11491D01*
X156163Y11573D01*
X156683Y12474D01*
X156953Y13480D01*
Y14520D01*
X156683Y15526D01*
X156163Y16427D01*
X155427Y17163D01*
X154526Y17683D01*
X153520Y17953D01*
X152480D01*
X151474Y17683D01*
X150573Y17163D01*
X149837Y16427D01*
X149317Y15526D01*
X149047Y14520D01*
Y13480D01*
X149317Y12474D01*
X149837Y11573D01*
X149919Y11491D01*
X149727Y11029D01*
X146273D01*
X146081Y11491D01*
X146163Y11573D01*
X146683Y12474D01*
X146953Y13480D01*
Y14520D01*
X146683Y15526D01*
X146163Y16427D01*
X145427Y17163D01*
X144526Y17683D01*
X143520Y17953D01*
X142480D01*
X141474Y17683D01*
X140573Y17163D01*
X139837Y16427D01*
X139317Y15526D01*
X139047Y14520D01*
Y13480D01*
X139317Y12474D01*
X139837Y11573D01*
X139919Y11491D01*
X139727Y11029D01*
X136273D01*
X136081Y11491D01*
X136163Y11573D01*
X136683Y12474D01*
X136953Y13480D01*
Y14520D01*
X136683Y15526D01*
X136163Y16427D01*
X135427Y17163D01*
X134526Y17683D01*
X133520Y17953D01*
X132480D01*
X131474Y17683D01*
X130573Y17163D01*
X129837Y16427D01*
X129317Y15526D01*
X129047Y14520D01*
Y13480D01*
X129317Y12474D01*
X129837Y11573D01*
X129919Y11491D01*
X129727Y11029D01*
X126273D01*
X126081Y11491D01*
X126163Y11573D01*
X126683Y12474D01*
X126953Y13480D01*
Y14520D01*
X126683Y15526D01*
X126163Y16427D01*
X125427Y17163D01*
X124526Y17683D01*
X123520Y17953D01*
X122480D01*
X121474Y17683D01*
X120573Y17163D01*
X119837Y16427D01*
X119317Y15526D01*
X119047Y14520D01*
Y13480D01*
X119317Y12474D01*
X119837Y11573D01*
X119919Y11491D01*
X119727Y11029D01*
X116273D01*
X116081Y11491D01*
X116163Y11573D01*
X116683Y12474D01*
X116953Y13480D01*
Y13500D01*
X113000D01*
X109047D01*
Y13480D01*
X109317Y12474D01*
X109837Y11573D01*
X109919Y11491D01*
X109727Y11029D01*
X108133D01*
X106685Y12478D01*
X106953Y13480D01*
Y14520D01*
X106683Y15526D01*
X106163Y16427D01*
X105427Y17163D01*
X104526Y17683D01*
X103520Y17953D01*
X102480D01*
X101474Y17683D01*
X100573Y17163D01*
X99837Y16427D01*
X99317Y15526D01*
X99047Y14520D01*
Y13480D01*
X99317Y12474D01*
X99837Y11573D01*
X100573Y10837D01*
X101474Y10317D01*
X102480Y10047D01*
X103520D01*
X104522Y10316D01*
X106419Y8419D01*
X106915Y8087D01*
X107500Y7971D01*
X180600D01*
X181185Y8087D01*
X181681Y8419D01*
X185681Y12419D01*
X186013Y12915D01*
X186129Y13500D01*
Y22467D01*
X274581Y110919D01*
X274913Y111415D01*
X275029Y112000D01*
Y173000D01*
X274913Y173585D01*
X274581Y174081D01*
X272685Y175978D01*
X272953Y176980D01*
Y178020D01*
X272683Y179026D01*
X272163Y179927D01*
X271427Y180663D01*
X270526Y181183D01*
X269520Y181453D01*
D02*
G37*
G36*
X187020Y166453D02*
X187000D01*
Y163000D01*
X190453D01*
Y163020D01*
X190183Y164026D01*
X189663Y164927D01*
X188927Y165663D01*
X188026Y166183D01*
X187020Y166453D01*
D02*
G37*
G36*
X186000D02*
X185980D01*
X184974Y166183D01*
X184073Y165663D01*
X183337Y164927D01*
X182817Y164026D01*
X182547Y163020D01*
Y163000D01*
X186000D01*
Y166453D01*
D02*
G37*
G36*
X23520Y163453D02*
X23500D01*
Y160000D01*
X26953D01*
Y160020D01*
X26683Y161026D01*
X26163Y161927D01*
X25427Y162663D01*
X24526Y163183D01*
X23520Y163453D01*
D02*
G37*
G36*
X22500D02*
X22480D01*
X21474Y163183D01*
X20573Y162663D01*
X19837Y161927D01*
X19317Y161026D01*
X19047Y160020D01*
Y160000D01*
X22500D01*
Y163453D01*
D02*
G37*
G36*
X190453Y162000D02*
X187000D01*
Y158547D01*
X187020D01*
X188026Y158817D01*
X188927Y159337D01*
X189663Y160073D01*
X190183Y160974D01*
X190453Y161980D01*
Y162000D01*
D02*
G37*
G36*
X186000D02*
X182547D01*
Y161980D01*
X182817Y160974D01*
X183337Y160073D01*
X184073Y159337D01*
X184974Y158817D01*
X185980Y158547D01*
X186000D01*
Y162000D01*
D02*
G37*
G36*
X177020Y166453D02*
X175980D01*
X174974Y166183D01*
X174073Y165663D01*
X173337Y164927D01*
X172817Y164026D01*
X172547Y163020D01*
Y161980D01*
X172816Y160978D01*
X156466Y144629D01*
X134500D01*
X133915Y144513D01*
X133419Y144181D01*
X128819Y139581D01*
X128487Y139085D01*
X128371Y138500D01*
Y102533D01*
X122022Y96184D01*
X121020Y96453D01*
X119980D01*
X118974Y96183D01*
X118073Y95663D01*
X117337Y94927D01*
X116817Y94026D01*
X116547Y93020D01*
Y91980D01*
X116817Y90974D01*
X117337Y90073D01*
X117419Y89991D01*
X117227Y89529D01*
X109034D01*
X93781Y104781D01*
X93285Y105113D01*
X92700Y105229D01*
X71194D01*
X71096Y105468D01*
X71026Y105729D01*
X71500Y106550D01*
X71754Y107500D01*
X68000D01*
X64246D01*
X64500Y106550D01*
X64974Y105729D01*
X64904Y105468D01*
X64806Y105229D01*
X60400D01*
X59815Y105113D01*
X59319Y104781D01*
X47419Y92881D01*
X47087Y92385D01*
X46971Y91800D01*
Y46028D01*
X46471Y45894D01*
X46163Y46427D01*
X45427Y47163D01*
X44526Y47683D01*
X43520Y47953D01*
X42480D01*
X41474Y47683D01*
X40573Y47163D01*
X39837Y46427D01*
X39317Y45526D01*
X39047Y44520D01*
Y43480D01*
X39317Y42474D01*
X39837Y41573D01*
X40573Y40837D01*
X41474Y40317D01*
X42480Y40047D01*
X43520D01*
X44526Y40317D01*
X45427Y40837D01*
X46163Y41573D01*
X46471Y42106D01*
X46971Y41972D01*
Y18500D01*
X46982Y18440D01*
X46570Y17953D01*
X39047D01*
Y10047D01*
X46953D01*
Y17216D01*
X47308Y17370D01*
X47453Y17384D01*
X49316Y15522D01*
X49047Y14520D01*
Y13480D01*
X49317Y12474D01*
X49837Y11573D01*
X50573Y10837D01*
X51474Y10317D01*
X52480Y10047D01*
X53520D01*
X54526Y10317D01*
X55427Y10837D01*
X56163Y11573D01*
X56683Y12474D01*
X56953Y13480D01*
Y14520D01*
X56683Y15526D01*
X56163Y16427D01*
X55427Y17163D01*
X54526Y17683D01*
X53520Y17953D01*
X52480D01*
X51478Y17684D01*
X50029Y19133D01*
Y40727D01*
X50491Y40919D01*
X50573Y40837D01*
X51474Y40317D01*
X52480Y40047D01*
X52500D01*
Y44000D01*
Y47953D01*
X52480D01*
X51474Y47683D01*
X50573Y47163D01*
X50491Y47081D01*
X50029Y47273D01*
Y91167D01*
X61033Y102171D01*
X81262D01*
X81454Y101709D01*
X81310Y101564D01*
X80867Y100798D01*
X80653Y100000D01*
X84000D01*
X87347D01*
X87133Y100798D01*
X86690Y101564D01*
X86546Y101709D01*
X86738Y102171D01*
X92067D01*
X107319Y86919D01*
X107815Y86587D01*
X108400Y86471D01*
X118472D01*
X118606Y85971D01*
X118073Y85663D01*
X117337Y84927D01*
X116819Y84029D01*
X101634D01*
X87202Y98461D01*
X87347Y99000D01*
X84000D01*
X80653D01*
X80867Y98202D01*
X81310Y97436D01*
X81936Y96810D01*
X82471Y96501D01*
Y75634D01*
X54522Y47684D01*
X53520Y47953D01*
X53500D01*
Y44500D01*
X56953D01*
Y44520D01*
X56684Y45522D01*
X80164Y69002D01*
X80699Y68829D01*
X80867Y68202D01*
X81310Y67436D01*
X81936Y66810D01*
X82702Y66367D01*
X83557Y66138D01*
X84443D01*
X85298Y66367D01*
X86064Y66810D01*
X86690Y67436D01*
X87133Y68202D01*
X87362Y69057D01*
Y69943D01*
X87133Y70798D01*
X86690Y71564D01*
X86064Y72190D01*
X85298Y72633D01*
X84671Y72801D01*
X84498Y73335D01*
X85081Y73919D01*
X85413Y74415D01*
X85529Y75000D01*
Y95154D01*
X85991Y95346D01*
X99919Y81419D01*
X100415Y81087D01*
X101000Y80971D01*
X116819D01*
X117337Y80073D01*
X118073Y79337D01*
X118974Y78817D01*
X119980Y78547D01*
X120000D01*
Y82500D01*
X120500D01*
Y83000D01*
X124453D01*
Y83020D01*
X124183Y84026D01*
X123663Y84927D01*
X122927Y85663D01*
X122394Y85971D01*
X122528Y86471D01*
X146000D01*
X146585Y86587D01*
X147081Y86919D01*
X148978Y88815D01*
X149980Y88547D01*
X151020D01*
X152026Y88817D01*
X152927Y89337D01*
X153663Y90073D01*
X154183Y90974D01*
X154453Y91980D01*
Y93020D01*
X154183Y94026D01*
X153663Y94927D01*
X152927Y95663D01*
X152026Y96183D01*
X151020Y96453D01*
X149980D01*
X148974Y96183D01*
X148073Y95663D01*
X147337Y94927D01*
X146817Y94026D01*
X146547Y93020D01*
Y91980D01*
X146816Y90978D01*
X145367Y89529D01*
X123773D01*
X123581Y89991D01*
X123663Y90073D01*
X124183Y90974D01*
X124453Y91980D01*
Y93020D01*
X124185Y94022D01*
X130981Y100819D01*
X131313Y101315D01*
X131429Y101900D01*
Y137866D01*
X135134Y141571D01*
X157100D01*
X157685Y141687D01*
X158181Y142019D01*
X174978Y158816D01*
X175980Y158547D01*
X177020D01*
X178026Y158817D01*
X178927Y159337D01*
X179663Y160073D01*
X180183Y160974D01*
X180453Y161980D01*
Y163020D01*
X180183Y164026D01*
X179663Y164927D01*
X178927Y165663D01*
X178026Y166183D01*
X177020Y166453D01*
D02*
G37*
G36*
X268500Y161453D02*
X268480D01*
X267474Y161183D01*
X266573Y160663D01*
X265837Y159927D01*
X265319Y159029D01*
X227000D01*
X226415Y158913D01*
X225919Y158581D01*
X218039Y150702D01*
X217500Y150847D01*
Y148000D01*
X220347D01*
X220202Y148539D01*
X227634Y155971D01*
X265319D01*
X265837Y155073D01*
X266573Y154337D01*
X267474Y153817D01*
X268480Y153547D01*
X268500D01*
Y157500D01*
Y161453D01*
D02*
G37*
G36*
X144494Y158756D02*
X143506D01*
X142550Y158500D01*
X141694Y158005D01*
X140995Y157306D01*
X140500Y156450D01*
X140244Y155494D01*
Y154506D01*
X140500Y153550D01*
X140995Y152694D01*
X141694Y151995D01*
X142550Y151500D01*
X143506Y151244D01*
X144494D01*
X145450Y151500D01*
X146306Y151995D01*
X147005Y152694D01*
X147500Y153550D01*
X147756Y154506D01*
Y155494D01*
X147500Y156450D01*
X147005Y157306D01*
X146306Y158005D01*
X145450Y158500D01*
X144494Y158756D01*
D02*
G37*
G36*
X190453Y156453D02*
X182547D01*
Y148547D01*
X190453D01*
Y156453D01*
D02*
G37*
G36*
X177020D02*
X175980D01*
X174974Y156183D01*
X174073Y155663D01*
X173337Y154927D01*
X172817Y154026D01*
X172547Y153020D01*
Y151980D01*
X172817Y150974D01*
X173337Y150073D01*
X174073Y149337D01*
X174974Y148817D01*
X175980Y148547D01*
X177020D01*
X178026Y148817D01*
X178927Y149337D01*
X179663Y150073D01*
X180183Y150974D01*
X180453Y151980D01*
Y153020D01*
X180183Y154026D01*
X179663Y154927D01*
X178927Y155663D01*
X178026Y156183D01*
X177020Y156453D01*
D02*
G37*
G36*
X216500Y150847D02*
X215702Y150633D01*
X214936Y150190D01*
X214310Y149564D01*
X213867Y148798D01*
X213653Y148000D01*
X216500D01*
Y150847D01*
D02*
G37*
G36*
X68994Y154756D02*
X68006D01*
X67050Y154500D01*
X66194Y154006D01*
X65495Y153306D01*
X65000Y152450D01*
X64744Y151495D01*
Y150505D01*
X65000Y149550D01*
X65495Y148694D01*
X66194Y147994D01*
X67050Y147500D01*
X68006Y147244D01*
X68994D01*
X69950Y147500D01*
X70806Y147994D01*
X71505Y148694D01*
X72000Y149550D01*
X72256Y150505D01*
Y151495D01*
X72000Y152450D01*
X71505Y153306D01*
X70806Y154006D01*
X69950Y154500D01*
X68994Y154756D01*
D02*
G37*
G36*
X220347Y147000D02*
X217500D01*
Y144153D01*
X218298Y144367D01*
X219064Y144810D01*
X219690Y145436D01*
X220133Y146202D01*
X220347Y147000D01*
D02*
G37*
G36*
X216500D02*
X213653D01*
X213867Y146202D01*
X214310Y145436D01*
X214936Y144810D01*
X215702Y144367D01*
X216500Y144153D01*
Y147000D01*
D02*
G37*
G36*
X68494Y141756D02*
X67506D01*
X66550Y141500D01*
X65694Y141006D01*
X64995Y140306D01*
X64500Y139450D01*
X64244Y138495D01*
Y137505D01*
X64500Y136550D01*
X64995Y135694D01*
X65694Y134994D01*
X66550Y134500D01*
X67506Y134244D01*
X68494D01*
X69450Y134500D01*
X70306Y134994D01*
X71005Y135694D01*
X71500Y136550D01*
X71756Y137505D01*
Y138495D01*
X71500Y139450D01*
X71005Y140306D01*
X70306Y141006D01*
X69450Y141500D01*
X68494Y141756D01*
D02*
G37*
G36*
X37943Y135362D02*
X37057D01*
X36202Y135133D01*
X35436Y134690D01*
X34810Y134064D01*
X34367Y133298D01*
X34138Y132443D01*
Y131557D01*
X34367Y130702D01*
X34810Y129936D01*
X35436Y129310D01*
X36202Y128867D01*
X37057Y128638D01*
X37943D01*
X38798Y128867D01*
X39564Y129310D01*
X40190Y129936D01*
X40633Y130702D01*
X40862Y131557D01*
Y132443D01*
X40633Y133298D01*
X40190Y134064D01*
X39564Y134690D01*
X38798Y135133D01*
X37943Y135362D01*
D02*
G37*
G36*
X144994Y137756D02*
X144006D01*
X143050Y137500D01*
X142194Y137005D01*
X141495Y136306D01*
X141000Y135450D01*
X140744Y134494D01*
Y133505D01*
X141000Y132550D01*
X141495Y131694D01*
X142194Y130994D01*
X143050Y130500D01*
X144006Y130244D01*
X144994D01*
X145861Y130476D01*
X148971Y127366D01*
Y116181D01*
X148073Y115663D01*
X147337Y114927D01*
X146817Y114026D01*
X146547Y113020D01*
Y111980D01*
X146817Y110974D01*
X147337Y110073D01*
X148073Y109337D01*
X148974Y108817D01*
X149980Y108547D01*
X151020D01*
X152026Y108817D01*
X152927Y109337D01*
X153663Y110073D01*
X154183Y110974D01*
X154453Y111980D01*
Y113020D01*
X154183Y114026D01*
X153663Y114927D01*
X152927Y115663D01*
X152029Y116181D01*
Y128000D01*
X151913Y128585D01*
X151581Y129081D01*
X148024Y132639D01*
X148256Y133505D01*
Y134494D01*
X148000Y135450D01*
X147505Y136306D01*
X146806Y137005D01*
X145950Y137500D01*
X144994Y137756D01*
D02*
G37*
G36*
X114495Y158756D02*
X113505D01*
X112550Y158500D01*
X111694Y158005D01*
X110995Y157306D01*
X110500Y156450D01*
X110244Y155494D01*
Y154506D01*
X110500Y153550D01*
X110995Y152694D01*
X111694Y151995D01*
X112471Y151546D01*
Y144700D01*
X112587Y144115D01*
X112919Y143619D01*
X112971Y143567D01*
Y137454D01*
X112194Y137005D01*
X111495Y136306D01*
X111000Y135450D01*
X110744Y134494D01*
Y133505D01*
X111000Y132550D01*
X111495Y131694D01*
X112194Y130994D01*
X112971Y130546D01*
Y118500D01*
X113087Y117915D01*
X113419Y117419D01*
X116547Y114290D01*
Y108547D01*
X124453D01*
Y116453D01*
X118710D01*
X116029Y119133D01*
Y130546D01*
X116806Y130994D01*
X117506Y131694D01*
X118000Y132550D01*
X118256Y133505D01*
Y134494D01*
X118000Y135450D01*
X117506Y136306D01*
X116806Y137005D01*
X116029Y137454D01*
Y144200D01*
X115913Y144785D01*
X115581Y145281D01*
X115529Y145334D01*
Y151546D01*
X116306Y151995D01*
X117006Y152694D01*
X117500Y153550D01*
X117756Y154506D01*
Y155494D01*
X117500Y156450D01*
X117006Y157306D01*
X116306Y158005D01*
X115450Y158500D01*
X114495Y158756D01*
D02*
G37*
G36*
X68500Y111754D02*
Y108500D01*
X71754D01*
X71500Y109450D01*
X71005Y110306D01*
X70306Y111005D01*
X69450Y111500D01*
X68500Y111754D01*
D02*
G37*
G36*
X67500D02*
X66550Y111500D01*
X65694Y111005D01*
X64995Y110306D01*
X64500Y109450D01*
X64246Y108500D01*
X67500D01*
Y111754D01*
D02*
G37*
G36*
X38000Y105347D02*
Y102500D01*
X40847D01*
X40633Y103298D01*
X40190Y104064D01*
X39564Y104690D01*
X38798Y105133D01*
X38000Y105347D01*
D02*
G37*
G36*
X26953Y159000D02*
X23000D01*
X19047D01*
Y158980D01*
X19317Y157974D01*
X19837Y157073D01*
X20573Y156337D01*
X21471Y155819D01*
Y116500D01*
X21587Y115915D01*
X21919Y115419D01*
X34298Y103039D01*
X34153Y102500D01*
X37000D01*
Y105347D01*
X36461Y105202D01*
X24529Y117133D01*
Y155819D01*
X25427Y156337D01*
X26163Y157073D01*
X26683Y157974D01*
X26953Y158980D01*
Y159000D01*
D02*
G37*
G36*
X40847Y101500D02*
X38000D01*
Y98653D01*
X38798Y98867D01*
X39564Y99310D01*
X40190Y99936D01*
X40633Y100702D01*
X40847Y101500D01*
D02*
G37*
G36*
X37000D02*
X34153D01*
X34367Y100702D01*
X34810Y99936D01*
X35436Y99310D01*
X36202Y98867D01*
X37000Y98653D01*
Y101500D01*
D02*
G37*
G36*
X151020Y106453D02*
X149980D01*
X148974Y106183D01*
X148073Y105663D01*
X147337Y104927D01*
X146817Y104026D01*
X146547Y103020D01*
Y101980D01*
X146817Y100974D01*
X147337Y100073D01*
X148073Y99337D01*
X148974Y98817D01*
X149980Y98547D01*
X151020D01*
X152026Y98817D01*
X152927Y99337D01*
X153663Y100073D01*
X154183Y100974D01*
X154453Y101980D01*
Y103020D01*
X154183Y104026D01*
X153663Y104927D01*
X152927Y105663D01*
X152026Y106183D01*
X151020Y106453D01*
D02*
G37*
G36*
X121020D02*
X119980D01*
X118974Y106183D01*
X118073Y105663D01*
X117337Y104927D01*
X116817Y104026D01*
X116547Y103020D01*
Y101980D01*
X116817Y100974D01*
X117337Y100073D01*
X118073Y99337D01*
X118974Y98817D01*
X119980Y98547D01*
X121020D01*
X122026Y98817D01*
X122927Y99337D01*
X123663Y100073D01*
X124183Y100974D01*
X124453Y101980D01*
Y103020D01*
X124183Y104026D01*
X123663Y104927D01*
X122927Y105663D01*
X122026Y106183D01*
X121020Y106453D01*
D02*
G37*
G36*
X26953Y173453D02*
X19047D01*
Y165547D01*
X26953D01*
Y167971D01*
X195367D01*
X198471Y164866D01*
Y110634D01*
X173539Y85702D01*
X172943Y85862D01*
X172057D01*
X171202Y85633D01*
X170436Y85190D01*
X169810Y84564D01*
X169367Y83798D01*
X169138Y82943D01*
Y82057D01*
X169367Y81202D01*
X169810Y80436D01*
X170436Y79810D01*
X171202Y79367D01*
X172057Y79138D01*
X172943D01*
X173798Y79367D01*
X174564Y79810D01*
X175190Y80436D01*
X175633Y81202D01*
X175862Y82057D01*
Y82943D01*
X175702Y83539D01*
X201081Y108919D01*
X201413Y109415D01*
X201529Y110000D01*
Y165500D01*
X201413Y166085D01*
X201081Y166581D01*
X197081Y170581D01*
X196585Y170913D01*
X196000Y171029D01*
X26953D01*
Y173453D01*
D02*
G37*
G36*
X203000Y85847D02*
Y83000D01*
X205847D01*
X205633Y83798D01*
X205190Y84564D01*
X204564Y85190D01*
X203798Y85633D01*
X203000Y85847D01*
D02*
G37*
G36*
X202000D02*
X201202Y85633D01*
X200436Y85190D01*
X199810Y84564D01*
X199367Y83798D01*
X199153Y83000D01*
X202000D01*
Y85847D01*
D02*
G37*
G36*
X205847Y82000D02*
X203000D01*
Y79153D01*
X203798Y79367D01*
X204564Y79810D01*
X205190Y80436D01*
X205633Y81202D01*
X205847Y82000D01*
D02*
G37*
G36*
X124453D02*
X121000D01*
Y78547D01*
X121020D01*
X122022Y78816D01*
X127819Y73019D01*
X128315Y72687D01*
X128900Y72571D01*
X194100D01*
X194685Y72687D01*
X195181Y73019D01*
X201461Y79298D01*
X202000Y79153D01*
Y82000D01*
X199153D01*
X199298Y81461D01*
X193466Y75629D01*
X129534D01*
X124185Y80978D01*
X124453Y81980D01*
Y82000D01*
D02*
G37*
G36*
X151020Y86453D02*
X149980D01*
X148974Y86183D01*
X148073Y85663D01*
X147337Y84927D01*
X146817Y84026D01*
X146547Y83020D01*
Y81980D01*
X146817Y80974D01*
X147337Y80073D01*
X148073Y79337D01*
X148974Y78817D01*
X149980Y78547D01*
X151020D01*
X152026Y78817D01*
X152927Y79337D01*
X153663Y80073D01*
X154183Y80974D01*
X154453Y81980D01*
Y83020D01*
X154183Y84026D01*
X153663Y84927D01*
X152927Y85663D01*
X152026Y86183D01*
X151020Y86453D01*
D02*
G37*
G36*
X260546Y86650D02*
X259454D01*
X258398Y86367D01*
X257452Y85821D01*
X256680Y85048D01*
X256133Y84102D01*
X255850Y83046D01*
Y81954D01*
X256133Y80898D01*
X256680Y79952D01*
X257452Y79180D01*
X258398Y78633D01*
X259454Y78350D01*
X260546D01*
X261602Y78633D01*
X262548Y79180D01*
X263320Y79952D01*
X263867Y80898D01*
X264150Y81954D01*
Y83046D01*
X263867Y84102D01*
X263320Y85048D01*
X262548Y85821D01*
X261602Y86367D01*
X260546Y86650D01*
D02*
G37*
G36*
Y76650D02*
X260500D01*
Y73000D01*
X264150D01*
Y73046D01*
X263867Y74102D01*
X263320Y75048D01*
X262548Y75820D01*
X261602Y76367D01*
X260546Y76650D01*
D02*
G37*
G36*
X259500D02*
X259454D01*
X258398Y76367D01*
X257452Y75820D01*
X256680Y75048D01*
X256133Y74102D01*
X255850Y73046D01*
Y73000D01*
X259500D01*
Y76650D01*
D02*
G37*
G36*
X264150Y72000D02*
X260500D01*
Y68350D01*
X260546D01*
X261602Y68633D01*
X262548Y69179D01*
X263320Y69952D01*
X263867Y70898D01*
X264150Y71954D01*
Y72000D01*
D02*
G37*
G36*
X259500D02*
X255850D01*
Y71954D01*
X256133Y70898D01*
X256680Y69952D01*
X257452Y69179D01*
X258398Y68633D01*
X259454Y68350D01*
X259500D01*
Y72000D01*
D02*
G37*
G36*
X264150Y66650D02*
X255850D01*
Y58350D01*
X264150D01*
Y66650D01*
D02*
G37*
G36*
X133520Y47953D02*
X133500D01*
Y44500D01*
X136953D01*
Y44520D01*
X136683Y45526D01*
X136163Y46427D01*
X135427Y47163D01*
X134526Y47683D01*
X133520Y47953D01*
D02*
G37*
G36*
X132500D02*
X132480D01*
X131474Y47683D01*
X130573Y47163D01*
X129837Y46427D01*
X129317Y45526D01*
X129047Y44520D01*
Y44500D01*
X132500D01*
Y47953D01*
D02*
G37*
G36*
X23994Y47756D02*
X23006D01*
X22050Y47500D01*
X21194Y47006D01*
X20494Y46306D01*
X20000Y45450D01*
X19744Y44495D01*
Y43505D01*
X20000Y42550D01*
X20494Y41694D01*
X21194Y40995D01*
X22050Y40500D01*
X23006Y40244D01*
X23994D01*
X24950Y40500D01*
X25806Y40995D01*
X26506Y41694D01*
X27000Y42550D01*
X27256Y43505D01*
Y44495D01*
X27000Y45450D01*
X26506Y46306D01*
X25806Y47006D01*
X24950Y47500D01*
X23994Y47756D01*
D02*
G37*
G36*
X173520Y47953D02*
X172480D01*
X171474Y47683D01*
X170573Y47163D01*
X169837Y46427D01*
X169317Y45526D01*
X169047Y44520D01*
Y43480D01*
X169317Y42474D01*
X169837Y41573D01*
X170573Y40837D01*
X171474Y40317D01*
X172480Y40047D01*
X173520D01*
X174526Y40317D01*
X175427Y40837D01*
X176163Y41573D01*
X176683Y42474D01*
X176953Y43480D01*
Y44520D01*
X176683Y45526D01*
X176163Y46427D01*
X175427Y47163D01*
X174526Y47683D01*
X173520Y47953D01*
D02*
G37*
G36*
X163520D02*
X162480D01*
X161474Y47683D01*
X160573Y47163D01*
X159837Y46427D01*
X159317Y45526D01*
X159047Y44520D01*
Y43480D01*
X159317Y42474D01*
X159837Y41573D01*
X160573Y40837D01*
X161474Y40317D01*
X162480Y40047D01*
X163520D01*
X164526Y40317D01*
X165427Y40837D01*
X166163Y41573D01*
X166683Y42474D01*
X166953Y43480D01*
Y44520D01*
X166683Y45526D01*
X166163Y46427D01*
X165427Y47163D01*
X164526Y47683D01*
X163520Y47953D01*
D02*
G37*
G36*
X153520D02*
X152480D01*
X151474Y47683D01*
X150573Y47163D01*
X149837Y46427D01*
X149317Y45526D01*
X149047Y44520D01*
Y43480D01*
X149317Y42474D01*
X149837Y41573D01*
X150573Y40837D01*
X151474Y40317D01*
X152480Y40047D01*
X153520D01*
X154526Y40317D01*
X155427Y40837D01*
X156163Y41573D01*
X156683Y42474D01*
X156953Y43480D01*
Y44520D01*
X156683Y45526D01*
X156163Y46427D01*
X155427Y47163D01*
X154526Y47683D01*
X153520Y47953D01*
D02*
G37*
G36*
X143520D02*
X142480D01*
X141474Y47683D01*
X140573Y47163D01*
X139837Y46427D01*
X139317Y45526D01*
X139047Y44520D01*
Y43480D01*
X139317Y42474D01*
X139837Y41573D01*
X140573Y40837D01*
X141474Y40317D01*
X142480Y40047D01*
X143520D01*
X144526Y40317D01*
X145427Y40837D01*
X146163Y41573D01*
X146683Y42474D01*
X146953Y43480D01*
Y44520D01*
X146683Y45526D01*
X146163Y46427D01*
X145427Y47163D01*
X144526Y47683D01*
X143520Y47953D01*
D02*
G37*
G36*
X136953Y43500D02*
X133500D01*
Y40047D01*
X133520D01*
X134526Y40317D01*
X135427Y40837D01*
X136163Y41573D01*
X136683Y42474D01*
X136953Y43480D01*
Y43500D01*
D02*
G37*
G36*
X132500D02*
X129047D01*
Y43480D01*
X129315Y42478D01*
X111919Y25081D01*
X111587Y24585D01*
X111471Y24000D01*
Y17681D01*
X110573Y17163D01*
X109837Y16427D01*
X109317Y15526D01*
X109047Y14520D01*
Y14500D01*
X113000D01*
X116953D01*
Y14520D01*
X116683Y15526D01*
X116163Y16427D01*
X115427Y17163D01*
X114529Y17681D01*
Y23367D01*
X131478Y40315D01*
X132480Y40047D01*
X132500D01*
Y43500D01*
D02*
G37*
G36*
X123520Y47953D02*
X122480D01*
X121474Y47683D01*
X120573Y47163D01*
X119837Y46427D01*
X119317Y45526D01*
X119047Y44520D01*
Y43480D01*
X119317Y42474D01*
X119837Y41573D01*
X120573Y40837D01*
X121474Y40317D01*
X122480Y40047D01*
X123520D01*
X124526Y40317D01*
X125427Y40837D01*
X126163Y41573D01*
X126683Y42474D01*
X126953Y43480D01*
Y44520D01*
X126683Y45526D01*
X126163Y46427D01*
X125427Y47163D01*
X124526Y47683D01*
X123520Y47953D01*
D02*
G37*
G36*
X113520D02*
X112480D01*
X111474Y47683D01*
X110573Y47163D01*
X109837Y46427D01*
X109317Y45526D01*
X109047Y44520D01*
Y43480D01*
X109317Y42474D01*
X109837Y41573D01*
X110573Y40837D01*
X111474Y40317D01*
X112480Y40047D01*
X113520D01*
X114526Y40317D01*
X115427Y40837D01*
X116163Y41573D01*
X116683Y42474D01*
X116953Y43480D01*
Y44520D01*
X116683Y45526D01*
X116163Y46427D01*
X115427Y47163D01*
X114526Y47683D01*
X113520Y47953D01*
D02*
G37*
G36*
X103520D02*
X102480D01*
X101474Y47683D01*
X100573Y47163D01*
X99837Y46427D01*
X99317Y45526D01*
X99047Y44520D01*
Y43480D01*
X99317Y42474D01*
X99837Y41573D01*
X100573Y40837D01*
X101474Y40317D01*
X102480Y40047D01*
X103520D01*
X104526Y40317D01*
X105427Y40837D01*
X106163Y41573D01*
X106683Y42474D01*
X106953Y43480D01*
Y44520D01*
X106683Y45526D01*
X106163Y46427D01*
X105427Y47163D01*
X104526Y47683D01*
X103520Y47953D01*
D02*
G37*
G36*
X93520D02*
X92480D01*
X91474Y47683D01*
X90573Y47163D01*
X89837Y46427D01*
X89317Y45526D01*
X89047Y44520D01*
Y43480D01*
X89317Y42474D01*
X89837Y41573D01*
X90573Y40837D01*
X91474Y40317D01*
X92480Y40047D01*
X93520D01*
X94526Y40317D01*
X95427Y40837D01*
X96163Y41573D01*
X96683Y42474D01*
X96953Y43480D01*
Y44520D01*
X96683Y45526D01*
X96163Y46427D01*
X95427Y47163D01*
X94526Y47683D01*
X93520Y47953D01*
D02*
G37*
G36*
X83520D02*
X82480D01*
X81474Y47683D01*
X80573Y47163D01*
X79837Y46427D01*
X79317Y45526D01*
X79047Y44520D01*
Y43480D01*
X79317Y42474D01*
X79837Y41573D01*
X80573Y40837D01*
X81474Y40317D01*
X82480Y40047D01*
X83520D01*
X84526Y40317D01*
X85427Y40837D01*
X86163Y41573D01*
X86683Y42474D01*
X86953Y43480D01*
Y44520D01*
X86683Y45526D01*
X86163Y46427D01*
X85427Y47163D01*
X84526Y47683D01*
X83520Y47953D01*
D02*
G37*
G36*
X73520D02*
X72480D01*
X71474Y47683D01*
X70573Y47163D01*
X69837Y46427D01*
X69317Y45526D01*
X69047Y44520D01*
Y43480D01*
X69317Y42474D01*
X69837Y41573D01*
X70573Y40837D01*
X71474Y40317D01*
X72480Y40047D01*
X73520D01*
X74526Y40317D01*
X75427Y40837D01*
X76163Y41573D01*
X76683Y42474D01*
X76953Y43480D01*
Y44520D01*
X76683Y45526D01*
X76163Y46427D01*
X75427Y47163D01*
X74526Y47683D01*
X73520Y47953D01*
D02*
G37*
G36*
X63520D02*
X62480D01*
X61474Y47683D01*
X60573Y47163D01*
X59837Y46427D01*
X59317Y45526D01*
X59047Y44520D01*
Y43480D01*
X59317Y42474D01*
X59837Y41573D01*
X60573Y40837D01*
X61474Y40317D01*
X62480Y40047D01*
X63520D01*
X64526Y40317D01*
X65427Y40837D01*
X66163Y41573D01*
X66683Y42474D01*
X66953Y43480D01*
Y44520D01*
X66683Y45526D01*
X66163Y46427D01*
X65427Y47163D01*
X64526Y47683D01*
X63520Y47953D01*
D02*
G37*
G36*
X56953Y43500D02*
X53500D01*
Y40047D01*
X53520D01*
X54526Y40317D01*
X55427Y40837D01*
X56163Y41573D01*
X56683Y42474D01*
X56953Y43480D01*
Y43500D01*
D02*
G37*
G36*
X23994Y17756D02*
X23006D01*
X22050Y17500D01*
X21194Y17006D01*
X20494Y16306D01*
X20000Y15450D01*
X19744Y14494D01*
Y13506D01*
X20000Y12550D01*
X20494Y11694D01*
X21194Y10994D01*
X22050Y10500D01*
X23006Y10244D01*
X23994D01*
X24950Y10500D01*
X25806Y10994D01*
X26506Y11694D01*
X27000Y12550D01*
X27256Y13506D01*
Y14494D01*
X27000Y15450D01*
X26506Y16306D01*
X25806Y17006D01*
X24950Y17500D01*
X23994Y17756D01*
D02*
G37*
G36*
X93520Y17953D02*
X92480D01*
X91474Y17683D01*
X90573Y17163D01*
X89837Y16427D01*
X89317Y15526D01*
X89047Y14520D01*
Y13480D01*
X89317Y12474D01*
X89837Y11573D01*
X90573Y10837D01*
X91474Y10317D01*
X92480Y10047D01*
X93520D01*
X94526Y10317D01*
X95427Y10837D01*
X96163Y11573D01*
X96683Y12474D01*
X96953Y13480D01*
Y14520D01*
X96683Y15526D01*
X96163Y16427D01*
X95427Y17163D01*
X94526Y17683D01*
X93520Y17953D01*
D02*
G37*
G36*
X83520D02*
X82480D01*
X81474Y17683D01*
X80573Y17163D01*
X79837Y16427D01*
X79317Y15526D01*
X79047Y14520D01*
Y13480D01*
X79317Y12474D01*
X79837Y11573D01*
X80573Y10837D01*
X81474Y10317D01*
X82480Y10047D01*
X83520D01*
X84526Y10317D01*
X85427Y10837D01*
X86163Y11573D01*
X86683Y12474D01*
X86953Y13480D01*
Y14520D01*
X86683Y15526D01*
X86163Y16427D01*
X85427Y17163D01*
X84526Y17683D01*
X83520Y17953D01*
D02*
G37*
G36*
X73520D02*
X72480D01*
X71474Y17683D01*
X70573Y17163D01*
X69837Y16427D01*
X69317Y15526D01*
X69047Y14520D01*
Y13480D01*
X69317Y12474D01*
X69837Y11573D01*
X70573Y10837D01*
X71474Y10317D01*
X72480Y10047D01*
X73520D01*
X74526Y10317D01*
X75427Y10837D01*
X76163Y11573D01*
X76683Y12474D01*
X76953Y13480D01*
Y14520D01*
X76683Y15526D01*
X76163Y16427D01*
X75427Y17163D01*
X74526Y17683D01*
X73520Y17953D01*
D02*
G37*
G36*
X63520D02*
X62480D01*
X61474Y17683D01*
X60573Y17163D01*
X59837Y16427D01*
X59317Y15526D01*
X59047Y14520D01*
Y13480D01*
X59317Y12474D01*
X59837Y11573D01*
X60573Y10837D01*
X61474Y10317D01*
X62480Y10047D01*
X63520D01*
X64526Y10317D01*
X65427Y10837D01*
X66163Y11573D01*
X66683Y12474D01*
X66953Y13480D01*
Y14520D01*
X66683Y15526D01*
X66163Y16427D01*
X65427Y17163D01*
X64526Y17683D01*
X63520Y17953D01*
D02*
G37*
%LPD*%
D14*
X84000Y99500D02*
X101000Y82500D01*
X120500D01*
X172500D02*
X200000Y110000D01*
Y165500D01*
X196000Y169500D02*
X200000Y165500D01*
X23000Y169500D02*
X196000D01*
X53000Y44000D02*
X84000Y75000D01*
Y99500D01*
X113000Y24000D02*
X133000Y44000D01*
X113000Y14000D02*
Y24000D01*
X194100Y74100D02*
X202500Y82500D01*
X128900Y74100D02*
X194100D01*
X120500Y82500D02*
X128900Y74100D01*
X23000Y116500D02*
X37500Y102000D01*
X23000Y116500D02*
Y159500D01*
X217000Y147500D02*
X227000Y157500D01*
X269000D01*
X103000Y14000D02*
X107500Y9500D01*
X180600D01*
X184600Y13500D01*
Y23100D01*
X273500Y112000D01*
Y173000D01*
X269000Y177500D02*
X273500Y173000D01*
X120500Y92500D02*
X129900Y101900D01*
Y138500D01*
X134500Y143100D01*
X157100D01*
X176500Y162500D01*
X144500Y134000D02*
X150500Y128000D01*
Y112500D02*
Y128000D01*
X114000Y144700D02*
Y155000D01*
Y144700D02*
X114500Y144200D01*
Y134000D02*
Y144200D01*
Y118500D02*
Y134000D01*
Y118500D02*
X120500Y112500D01*
X48500Y18500D02*
X53000Y14000D01*
X48500Y18500D02*
Y91800D01*
X60400Y103700D01*
X92700D01*
X108400Y88000D01*
X146000D01*
X150500Y92500D01*
D22*
X120500Y112500D02*
D03*
D23*
Y102500D02*
D03*
Y92500D02*
D03*
Y82500D02*
D03*
X150500Y112500D02*
D03*
Y102500D02*
D03*
Y92500D02*
D03*
Y82500D02*
D03*
X176500Y162500D02*
D03*
X186500D02*
D03*
X176500Y152500D02*
D03*
X269000Y177500D02*
D03*
Y167500D02*
D03*
Y157500D02*
D03*
Y147500D02*
D03*
X53000Y14000D02*
D03*
X63000D02*
D03*
X73000D02*
D03*
X83000D02*
D03*
X93000D02*
D03*
X103000D02*
D03*
X113000D02*
D03*
X123000D02*
D03*
X133000D02*
D03*
X143000D02*
D03*
X153000D02*
D03*
X163000D02*
D03*
X173000D02*
D03*
X43000Y44000D02*
D03*
X53000D02*
D03*
X63000D02*
D03*
X73000D02*
D03*
X83000D02*
D03*
X93000D02*
D03*
X103000D02*
D03*
X113000D02*
D03*
X123000D02*
D03*
X133000D02*
D03*
X143000D02*
D03*
X153000D02*
D03*
X163000D02*
D03*
X173000D02*
D03*
X23000Y159500D02*
D03*
D24*
X186500Y152500D02*
D03*
X269000Y137500D02*
D03*
X43000Y14000D02*
D03*
X23000Y169500D02*
D03*
D25*
X114500Y134000D02*
D03*
X144500D02*
D03*
X114000Y155000D02*
D03*
X144000D02*
D03*
X68000Y138000D02*
D03*
Y108000D02*
D03*
X68500Y181000D02*
D03*
Y151000D02*
D03*
X23500Y14000D02*
D03*
Y44000D02*
D03*
D26*
X217000Y177500D02*
D03*
Y147500D02*
D03*
X172500Y82500D02*
D03*
X202500D02*
D03*
X84000Y99500D02*
D03*
Y69500D02*
D03*
X37500Y132000D02*
D03*
Y102000D02*
D03*
D27*
X260000Y62500D02*
D03*
D28*
Y72500D02*
D03*
Y82500D02*
D03*
M02*
