M48
;Layer_Color=9474304
;FILE_FORMAT=2:4
INCH,TZ
;TYPE=PLATED
T1F00S00C0.0276
T2F00S00C0.0335
T3F00S00C0.0354
T4F00S00C0.0394
%
T01
X21700Y14750
Y17750
X20250Y8250
X17250
X8400Y6950
Y9950
X3750Y10200
Y13200
T02
X2350Y1400
Y4400
X6800Y10800
Y13800
X6850Y15100
Y18100
X11400Y15500
X11450Y13400
X14450
X14400Y15500
T03
X4300Y1400
X5300
Y4400
X4300
X6300
X7300
X8300
X9300
X10300
X11300
X12300
X13300
X14300
X15300
X16300
X17300
Y1400
X16300
X15300
X14300
X13300
X12300
X11300
X10300
X9300
X8300
X7300
X6300
X26900Y13750
Y14750
Y15750
Y16750
Y17750
X18650Y16250
X17650
Y15250
X18650
X15050Y11250
Y10250
Y9250
Y8250
X12050
Y9250
Y10250
Y11250
X2300Y15950
Y16950
T04
X26000Y6250
Y7250
Y8250
M30
